ffmpeg version 3.4.8-0ubuntu0.2 Copyright (c) 2000-2020 the FFmpeg developers
  built with gcc 7 (Ubuntu 7.5.0-3ubuntu1~18.04)
  configuration: --prefix=/usr --extra-version=0ubuntu0.2 --toolchain=hardened --libdir=/usr/lib/x86_64-linux-gnu --incdir=/usr/include/x86_64-linux-gnu --enable-gpl --disable-stripping --enable-avresample --enable-avisynth --enable-gnutls --enable-ladspa --enable-libass --enable-libbluray --enable-libbs2b --enable-libcaca --enable-libcdio --enable-libflite --enable-libfontconfig --enable-libfreetype --enable-libfribidi --enable-libgme --enable-libgsm --enable-libmp3lame --enable-libmysofa --enable-libopenjpeg --enable-libopenmpt --enable-libopus --enable-libpulse --enable-librubberband --enable-librsvg --enable-libshine --enable-libsnappy --enable-libsoxr --enable-libspeex --enable-libssh --enable-libtheora --enable-libtwolame --enable-libvorbis --enable-libvpx --enable-libwavpack --enable-libwebp --enable-libx265 --enable-libxml2 --enable-libxvid --enable-libzmq --enable-libzvbi --enable-omx --enable-openal --enable-opengl --enable-sdl2 --enable-libdc1394 --enable-libdrm --enable-libiec61883 --enable-chromaprint --enable-frei0r --enable-libopencv --enable-libx264 --enable-shared
  libavutil      55. 78.100 / 55. 78.100
  libavcodec     57.107.100 / 57.107.100
  libavformat    57. 83.100 / 57. 83.100
  libavdevice    57. 10.100 / 57. 10.100
  libavfilter     6.107.100 /  6.107.100
  libavresample   3.  7.  0 /  3.  7.  0
  libswscale      4.  8.100 /  4.  8.100
  libswresample   2.  9.100 /  2.  9.100
  libpostproc    54.  7.100 / 54.  7.100
[rawvideo @ 0x5626eb2c9a20] Estimating duration from bitrate, this may be inaccurate
Input #0, rawvideo, from '../../SVC-Encoder-20220109T061506Z-001/SVC-Encoder/Dataset/RollerCoaster/ERP_8x8/tile_yuv/Tile_16_480x240.yuv':
  Duration: 00:00:10.00, start: 0.000000, bitrate: 41472 kb/s
    Stream #0:0: Video: rawvideo (I420 / 0x30323449), yuv420p, 480x240, 41472 kb/s, 30 tbr, 30 tbn, 30 tbc
Stream mapping:
  Stream #0:0 -> #0:0 (rawvideo (native) -> h264 (libx264))
Press [q] to stop, [?] for help
[libx264 @ 0x5626eb2d6c60] using cpu capabilities: MMX2 SSE2Fast LZCNT SSSE3 SSE4.2 AVX
[libx264 @ 0x5626eb2d6c60] profile High, level 2.1
Output #0, rawvideo, to 'RollerCoaster_Tile_16_480x240_x264_QP_28.h264':
  Metadata:
    encoder         : Lavf57.83.100
    Stream #0:0: Video: h264 (libx264), yuv420p, 480x240, q=-1--1, 30 fps, 30 tbn, 30 tbc
    Metadata:
      encoder         : Lavc57.107.100 libx264
    Side data:
      cpb: bitrate max/min/avg: 0/0/0 buffer size: 0 vbv_delay: -1
frame=  204 fps=0.0 q=34.0 PSNR=Y:nan U:nan V:nan *:nan size=      46kB time=00:00:05.36 bitrate=  70.6kbits/s speed=10.7x    frame=  300 fps=0.0 q=34.0 LPSNR=Y:inf U:inf V:inf *:inf size=      78kB time=00:00:09.93 bitrate=  63.9kbits/s speed=13.3x    
video:78kB audio:0kB subtitle:0kB other streams:0kB global headers:0kB muxing overhead: 0.000000%
[libx264 @ 0x5626eb2d6c60] frame I:2     Avg QP:25.96  size:  5716  PSNR Mean Y:44.20 U:48.49 V:51.19 Avg:45.38 Global:45.32
[libx264 @ 0x5626eb2d6c60] frame P:76    Avg QP:27.75  size:   575  PSNR Mean Y:42.47 U:48.33 V:50.32 Avg:43.79 Global:43.78
[libx264 @ 0x5626eb2d6c60] frame B:222   Avg QP:33.62  size:   109  PSNR Mean Y:42.24 U:48.24 V:50.31 Avg:43.58 Global:43.56
[libx264 @ 0x5626eb2d6c60] consecutive B-frames:  1.0%  0.7%  1.0% 97.3%
[libx264 @ 0x5626eb2d6c60] mb I  I16..4: 30.7% 58.4% 10.9%
[libx264 @ 0x5626eb2d6c60] mb P  I16..4:  0.4%  0.2%  0.0%  P16..4: 30.5%  5.3%  0.9%  0.0%  0.0%    skip:62.7%
[libx264 @ 0x5626eb2d6c60] mb B  I16..4:  0.0%  0.0%  0.0%  B16..8: 20.7%  0.3%  0.0%  direct: 0.0%  skip:78.9%  L0:36.9% L1:62.7% BI: 0.4%
[libx264 @ 0x5626eb2d6c60] 8x8 transform intra:52.8% inter:76.2%
[libx264 @ 0x5626eb2d6c60] coded y,uvDC,uvAC intra: 37.7% 41.6% 5.5% inter: 1.9% 1.5% 0.0%
[libx264 @ 0x5626eb2d6c60] i16 v,h,dc,p: 12% 45% 16% 27%
[libx264 @ 0x5626eb2d6c60] i8 v,h,dc,ddl,ddr,vr,hd,vl,hu:  9% 27% 28%  3%  6%  3% 14%  3%  7%
[libx264 @ 0x5626eb2d6c60] i4 v,h,dc,ddl,ddr,vr,hd,vl,hu:  9% 29% 25%  1%  7%  2% 17%  2%  9%
[libx264 @ 0x5626eb2d6c60] i8c dc,h,v,p: 58% 29%  7%  6%
[libx264 @ 0x5626eb2d6c60] Weighted P-Frames: Y:0.0% UV:0.0%
[libx264 @ 0x5626eb2d6c60] ref P L0: 59.9% 17.2% 17.6%  5.3%
[libx264 @ 0x5626eb2d6c60] ref B L0: 74.4% 22.1%  3.5%
[libx264 @ 0x5626eb2d6c60] ref B L1: 78.4% 21.6%
[libx264 @ 0x5626eb2d6c60] PSNR Mean Y:42.308 U:48.264 V:50.316 Avg:43.641 Global:43.624 kb/s:63.49
